<svg width="1247" height="1244" viewBox="0 0 1247 1244" fill="none" xmlns="http://www.w3.org/2000/svg">
<path d="M665.307 0.104447L1025.5 1028.73L1120 846.227L1189.76 882.125C1226.5 802.772 1247 714.39 1247 621.227C1247 291.456 990.163 21.5771 665.307 0.104447Z" fill="#C4C4C4"/>
<path d="M980.04 1131.97C979.678 1130.69 979.331 1129.45 979 1128.23L623.214 113.794L266.282 1131.5C367.45 1202.23 490.621 1243.73 623.5 1243.73C756.082 1243.73 878.999 1202.41 980.04 1131.97Z" fill="#C4C4C4"/>
<path d="M58.823 885.522L124.5 851.727L219 1034.23L579.5 4.72721L584.718 4.0295L583.304 0C257.687 20.685 0 290.911 0 621.227C0 715.722 21.0885 805.298 58.823 885.522Z" fill="#C4C4C4"/>
</svg>
